<?xml version="1.0" encoding="iso-8859-1"?>
<!-- Uploaded to: SVG Repo, www.svgrepo.com, Generator: SVG Repo Mixer Tools -->
<!DOCTYPE svg PUBLIC "-//W3C//DTD SVG 1.1//EN" "http://www.w3.org/Graphics/SVG/1.1/DTD/svg11.dtd">
<svg fill="#000000" version="1.1" id="Capa_1" xmlns="http://www.w3.org/2000/svg" xmlns:xlink="http://www.w3.org/1999/xlink"
	 width="800px" height="800px" viewBox="0 0 89.423 89.423"
	 xml:space="preserve">
<g>
	<g>
		<path d="M87.956,21.78L70.955,4.778c-1.956-1.956-5.127-1.956-7.083,0L23.137,45.511c-0.742,0.742-1.198,1.659-1.377,2.618
			c0.108,0.048,0.214,0.116,0.314,0.216l22.61,22.61c0.93-0.189,1.817-0.639,2.538-1.359l40.732-40.732
			C89.912,26.909,89.913,23.735,87.956,21.78z M77.108,34.752L46.691,65.168c-0.913,0.914-2.331-0.502-1.417-1.416l30.417-30.417
			C76.605,32.422,78.022,33.838,77.108,34.752z"/>
		<path d="M17.294,51.355l-4.783,4.782c-1.956,1.956-1.956,5.128,0,7.084l2.318,2.317c-0.6,0.353-1.192,0.807-1.742,1.356
			c-2.176,2.176-5.704,7.844-4.383,9.165l7.969,7.97c1.32,1.32,6.989-2.207,9.165-4.384c0.55-0.551,1.005-1.143,1.357-1.742
			l2.318,2.317c1.956,1.957,5.128,1.957,7.084,0l4.781-4.781c0.968-0.968,1.447-2.231,1.458-3.501L20.794,49.898
			C19.526,49.907,18.261,50.388,17.294,51.355z"/>
		<path d="M7.841,78.14c-0.3-0.285-0.776-0.273-1.062,0.025l-6.572,6.884c-0.286,0.3-0.275,0.776,0.025,1.062l14.518-0.337
			c0.286-0.3,0.275-0.773-0.024-1.062L7.841,78.14z"/>
	</g>
</g>
</svg>
